<svg width="1440" height="802" viewBox="0 0 1440 802" fill="none" xmlns="http://www.w3.org/2000/svg">
<g filter="url(#filter0_d_25_41)">
<path d="M766.276 113.585C868.919 111.086 969.486 76.1713 1256.85 13.1488C1544.22 -49.8736 1399.53 123.759 1429.49 318.58C1459.45 513.4 1266.48 713.289 1266.48 713.289C1118.38 739.607 991.673 767.025 861.239 790.322C730.805 813.618 453.397 716.899 202.595 761.037L201.167 759.099C144.811 682.604 112.775 639.12 20.2872 556.042C-131.36 407.981 0.990036 318.58 295.019 401.341C589.047 484.103 572.289 374.603 572.289 374.603C572.289 374.603 418.379 294.634 625.671 162.658C643.492 149.709 701.733 115.157 766.276 113.585Z" fill="#ADC2A9"/>
</g>
<defs>
<filter id="filter0_d_25_41" x="-43" y="0" width="1491" height="802" filterUnits="userSpaceOnUse" color-interpolation-filters="sRGB">
<feFlood flood-opacity="0" result="BackgroundImageFix"/>
<feColorMatrix in="SourceAlpha" type="matrix" values="0 0 0 0 0 0 0 0 0 0 0 0 0 0 0 0 0 0 127 0" result="hardAlpha"/>
<feOffset dx="4" dy="4"/>
<feGaussianBlur stdDeviation="2"/>
<feComposite in2="hardAlpha" operator="out"/>
<feColorMatrix type="matrix" values="0 0 0 0 0 0 0 0 0 0 0 0 0 0 0 0 0 0 0.25 0"/>
<feBlend mode="normal" in2="BackgroundImageFix" result="effect1_dropShadow_25_41"/>
<feBlend mode="normal" in="SourceGraphic" in2="effect1_dropShadow_25_41" result="shape"/>
</filter>
</defs>
</svg>
